# xmcd
#
# Track frame offsets:
#	150
#	36310
#	56597
#	69752
#	86107
#	106385
#	117417
#	134030
#	152247
#	166770
#	186837
#	199740
#	216762
#	234702
#
# Disc length: 3475
#
# Revision: 1
# Processed by: cddbd v1.5.1PL0 Copyright (c) Steve Scherf et al.
# Submitted via: CDex 1.50Beta7
# Normalized: r0:TRMNUM
#
DISCID=cb0d910e
DTITLE=Verve - A Jazz Romance ... A Night In [CD3]
DYEAR=1998
DGENRE=Jazz
TTITLE0=Mark Whitfield and Diana Krall - When I Fall in Love
TTITLE1=JJ Johnson - The Very Thought of You
TTITLE2=Roland Kirk - Alfie
TTITLE3=Nina Simone - Ne Me Quitte Pas
TTITLE4=Aldo Romano - Caruso
TTITLE5=Ella Fitzgerald - Reach For Tomorrow
TTITLE6=Stan Getz - Little Girl Blue
TTITLE7=Sarah Vaughan - Someone To Watch Over Me
TTITLE8=Cannonball Adderley - (I'm Afraid) The Masqerade is Over
TTITLE9=Tal Farlow - Moonlight Becomes You
TTITLE10=Morgana King - Bill
TTITLE11=Arthur Prysock - Ghost of a Chance
TTITLE12=Coleman Hawkins - Like Someone In Love
TTITLE13=Abbey Lincoln - I Should Care
EXTD=YEAR: 1998
EXTT0=
EXTT1=
EXTT2=
EXTT3=
EXTT4=
EXTT5=
EXTT6=
EXTT7=
EXTT8=
EXTT9=
EXTT10=
EXTT11=
EXTT12=
EXTT13=
PLAYORDER=
